# xmcd CD database file
#
# Track frame offsets:
#	150
#	14400
#	32667
#	52437
#	68348
#	82173
#	100781
#	128516
#	144371
#	159487
#
# Disc length: 2436 seconds
#
# Revision: 0
# Processed by: cddbd v1.5.1PL0 Copyright (c) Steve Scherf et al.
# Submitted via: ffxemail 0.1
#
DISCID=7e09820a
DTITLE=Pascal Colomb - Boulevard de la mer
DYEAR=2004
DGENRE=Chanson
TTITLE0=Montjavoux
TTITLE1=Boulevard de la mer
TTITLE2=J'en passe
TTITLE3=Toute ressemblance
TTITLE4=Les larmes du sumotori
TTITLE5=Elisabeth
TTITLE6=L'Inde en fevrier
TTITLE7=Ange blanc
TTITLE8=Rouge et vert
TTITLE9=/Je suis/ un jardin
EXTD=YEAR: 2004
EXTT0=
EXTT1=
EXTT2=
EXTT3=
EXTT4=
EXTT5=
EXTT6=
EXTT7=
EXTT8=
EXTT9=
PLAYORDER=
